<mxfile host="app.diagrams.net" modified="2023-09-18T06:17:39.938Z" agent="Mozilla/5.0 (Macintosh; Intel Mac OS X 10_15_7) AppleWebKit/537.36 (KHTML, like Gecko) Chrome/119.0.0.0 Safari/537.36" etag="NhF4ZeJzgGFm16Y4sw7h" version="21.7.4" type="github">
  <diagram name="Page-1" id="03018318-947c-dd8e-b7a3-06fadd420f32">
    <mxGraphModel dx="1581" dy="1814" grid="1" gridSize="10" guides="1" tooltips="1" connect="1" arrows="1" fold="1" page="1" pageScale="1" pageWidth="1100" pageHeight="850" background="none" math="0" shadow="0">
      <root>
        <mxCell id="0" />
        <mxCell id="1" parent="0" />
        <mxCell id="uw5OpCNFV-HiSpu1PvvK-25" style="edgeStyle=orthogonalEdgeStyle;rounded=0;sketch=1;hachureGap=4;jiggle=2;curveFitting=1;orthogonalLoop=1;jettySize=auto;html=1;entryX=0.5;entryY=0;entryDx=0;entryDy=0;fontFamily=Comic Sans MS;fontSize=16;labelBackgroundColor=none;strokeColor=#788AA3;fontColor=default;" edge="1" parent="1" source="uw5OpCNFV-HiSpu1PvvK-4" target="uw5OpCNFV-HiSpu1PvvK-24">
          <mxGeometry relative="1" as="geometry" />
        </mxCell>
        <mxCell id="uw5OpCNFV-HiSpu1PvvK-4" value="&lt;meta charset=&quot;utf-8&quot; style=&quot;font-size: 14px;&quot;&gt;&lt;strong style=&quot;border: 0px solid rgb(217, 217, 227); color: var(--tw-prose-bold); font-size: 14px; font-style: normal; font-variant-ligatures: normal; font-variant-caps: normal; letter-spacing: normal; orphans: 2; text-indent: 0px; text-transform: none; widows: 2; word-spacing: 0px; -webkit-text-stroke-width: 0px; text-decoration-thickness: initial; text-decoration-style: initial; text-decoration-color: initial; box-sizing: border-box; --tw-border-spacing-x: 0; --tw-border-spacing-y: 0; --tw-translate-x: 0; --tw-translate-y: 0; --tw-rotate: 0; --tw-skew-x: 0; --tw-skew-y: 0; --tw-scale-x: 1; --tw-scale-y: 1; --tw-pan-x: ; --tw-pan-y: ; --tw-pinch-zoom: ; --tw-scroll-snap-strictness: proximity; --tw-gradient-from-position: ; --tw-gradient-via-position: ; --tw-gradient-to-position: ; --tw-ordinal: ; --tw-slashed-zero: ; --tw-numeric-figure: ; --tw-numeric-spacing: ; --tw-numeric-fraction: ; --tw-ring-inset: ; --tw-ring-offset-width: 0px; --tw-ring-offset-color: #fff; --tw-ring-color: rgba(69,89,164,.5); --tw-ring-offset-shadow: 0 0 transparent; --tw-ring-shadow: 0 0 transparent; --tw-shadow: 0 0 transparent; --tw-shadow-colored: 0 0 transparent; --tw-blur: ; --tw-brightness: ; --tw-contrast: ; --tw-grayscale: ; --tw-hue-rotate: ; --tw-invert: ; --tw-saturate: ; --tw-sepia: ; --tw-drop-shadow: ; --tw-backdrop-blur: ; --tw-backdrop-brightness: ; --tw-backdrop-contrast: ; --tw-backdrop-grayscale: ; --tw-backdrop-hue-rotate: ; --tw-backdrop-invert: ; --tw-backdrop-opacity: ; --tw-backdrop-saturate: ; --tw-backdrop-sepia: ; font-weight: 600;&quot;&gt;*表单设计器（已有）&lt;/strong&gt;" style="shape=ext;double=1;rounded=1;whiteSpace=wrap;html=1;strokeWidth=1;dashed=1;sketch=1;curveFitting=1;jiggle=2;fontSize=14;labelBackgroundColor=none;align=left;spacingBottom=4;spacingTop=4;spacingLeft=4;spacingRight=4;fontFamily=Comic Sans MS;fillColor=#B2C9AB;strokeColor=#788AA3;fontColor=#46495D;" vertex="1" parent="1">
          <mxGeometry x="83" y="90" width="120" height="80" as="geometry" />
        </mxCell>
        <mxCell id="uw5OpCNFV-HiSpu1PvvK-18" value="" style="edgeStyle=orthogonalEdgeStyle;rounded=0;sketch=1;hachureGap=4;jiggle=2;curveFitting=1;orthogonalLoop=1;jettySize=auto;html=1;fontFamily=Comic Sans MS;fontSize=16;entryX=0;entryY=0.5;entryDx=0;entryDy=0;align=left;spacingBottom=4;spacingTop=4;spacingLeft=4;spacingRight=4;labelBackgroundColor=none;strokeColor=#788AA3;fontColor=default;" edge="1" parent="1" source="uw5OpCNFV-HiSpu1PvvK-5" target="uw5OpCNFV-HiSpu1PvvK-19">
          <mxGeometry relative="1" as="geometry">
            <mxPoint x="283" y="240" as="targetPoint" />
          </mxGeometry>
        </mxCell>
        <mxCell id="uw5OpCNFV-HiSpu1PvvK-21" style="edgeStyle=orthogonalEdgeStyle;rounded=0;sketch=1;hachureGap=4;jiggle=2;curveFitting=1;orthogonalLoop=1;jettySize=auto;html=1;exitX=1;exitY=0.5;exitDx=0;exitDy=0;entryX=0;entryY=0.5;entryDx=0;entryDy=0;fontFamily=Comic Sans MS;fontSize=16;align=left;spacingBottom=4;spacingTop=4;spacingLeft=4;spacingRight=4;labelBackgroundColor=none;strokeColor=#788AA3;fontColor=default;" edge="1" parent="1" source="uw5OpCNFV-HiSpu1PvvK-5" target="uw5OpCNFV-HiSpu1PvvK-22">
          <mxGeometry relative="1" as="geometry">
            <mxPoint x="493" y="160" as="targetPoint" />
          </mxGeometry>
        </mxCell>
        <mxCell id="uw5OpCNFV-HiSpu1PvvK-5" value="&lt;ol style=&quot;border: 0px solid rgb(217, 217, 227); box-sizing: border-box; --tw-border-spacing-x: 0; --tw-border-spacing-y: 0; --tw-translate-x: 0; --tw-translate-y: 0; --tw-rotate: 0; --tw-skew-x: 0; --tw-skew-y: 0; --tw-scale-x: 1; --tw-scale-y: 1; --tw-pan-x: ; --tw-pan-y: ; --tw-pinch-zoom: ; --tw-scroll-snap-strictness: proximity; --tw-gradient-from-position: ; --tw-gradient-via-position: ; --tw-gradient-to-position: ; --tw-ordinal: ; --tw-slashed-zero: ; --tw-numeric-figure: ; --tw-numeric-spacing: ; --tw-numeric-fraction: ; --tw-ring-inset: ; --tw-ring-offset-width: 0px; --tw-ring-offset-color: #fff; --tw-ring-color: rgba(69,89,164,.5); --tw-ring-offset-shadow: 0 0 transparent; --tw-ring-shadow: 0 0 transparent; --tw-shadow: 0 0 transparent; --tw-shadow-colored: 0 0 transparent; --tw-blur: ; --tw-brightness: ; --tw-contrast: ; --tw-grayscale: ; --tw-hue-rotate: ; --tw-invert: ; --tw-saturate: ; --tw-sepia: ; --tw-drop-shadow: ; --tw-backdrop-blur: ; --tw-backdrop-brightness: ; --tw-backdrop-contrast: ; --tw-backdrop-grayscale: ; --tw-backdrop-hue-rotate: ; --tw-backdrop-invert: ; --tw-backdrop-opacity: ; --tw-backdrop-saturate: ; --tw-backdrop-sepia: ; list-style: none; margin: 1.25em 0px; padding: 0px; counter-reset: list-number 0; display: flex; flex-direction: column; color: rgb(55, 65, 81); font-size: 14px;&quot;&gt;&lt;li style=&quot;border: 0px solid rgb(217, 217, 227); box-sizing: border-box; --tw-border-spacing-x: 0; --tw-border-spacing-y: 0; --tw-translate-x: 0; --tw-translate-y: 0; --tw-rotate: 0; --tw-skew-x: 0; --tw-skew-y: 0; --tw-scale-x: 1; --tw-scale-y: 1; --tw-pan-x: ; --tw-pan-y: ; --tw-pinch-zoom: ; --tw-scroll-snap-strictness: proximity; --tw-gradient-from-position: ; --tw-gradient-via-position: ; --tw-gradient-to-position: ; --tw-ordinal: ; --tw-slashed-zero: ; --tw-numeric-figure: ; --tw-numeric-spacing: ; --tw-numeric-fraction: ; --tw-ring-inset: ; --tw-ring-offset-width: 0px; --tw-ring-offset-color: #fff; --tw-ring-color: rgba(69,89,164,.5); --tw-ring-offset-shadow: 0 0 transparent; --tw-ring-shadow: 0 0 transparent; --tw-shadow: 0 0 transparent; --tw-shadow-colored: 0 0 transparent; --tw-blur: ; --tw-brightness: ; --tw-contrast: ; --tw-grayscale: ; --tw-hue-rotate: ; --tw-invert: ; --tw-saturate: ; --tw-sepia: ; --tw-drop-shadow: ; --tw-backdrop-blur: ; --tw-backdrop-brightness: ; --tw-backdrop-contrast: ; --tw-backdrop-grayscale: ; --tw-backdrop-hue-rotate: ; --tw-backdrop-invert: ; --tw-backdrop-opacity: ; --tw-backdrop-saturate: ; --tw-backdrop-sepia: ; margin-bottom: 0px; margin-top: 0px; padding-left: 0.375em; counter-increment: list-number 1; display: block; min-height: 28px; font-size: 14px;&quot;&gt;&lt;p style=&quot;border: 0px solid rgb(217, 217, 227); box-sizing: border-box; --tw-border-spacing-x: 0; --tw-border-spacing-y: 0; --tw-translate-x: 0; --tw-translate-y: 0; --tw-rotate: 0; --tw-skew-x: 0; --tw-skew-y: 0; --tw-scale-x: 1; --tw-scale-y: 1; --tw-pan-x: ; --tw-pan-y: ; --tw-pinch-zoom: ; --tw-scroll-snap-strictness: proximity; --tw-gradient-from-position: ; --tw-gradient-via-position: ; --tw-gradient-to-position: ; --tw-ordinal: ; --tw-slashed-zero: ; --tw-numeric-figure: ; --tw-numeric-spacing: ; --tw-numeric-fraction: ; --tw-ring-inset: ; --tw-ring-offset-width: 0px; --tw-ring-offset-color: #fff; --tw-ring-color: rgba(69,89,164,.5); --tw-ring-offset-shadow: 0 0 transparent; --tw-ring-shadow: 0 0 transparent; --tw-shadow: 0 0 transparent; --tw-shadow-colored: 0 0 transparent; --tw-blur: ; --tw-brightness: ; --tw-contrast: ; --tw-grayscale: ; --tw-hue-rotate: ; --tw-invert: ; --tw-saturate: ; --tw-sepia: ; --tw-drop-shadow: ; --tw-backdrop-blur: ; --tw-backdrop-brightness: ; --tw-backdrop-contrast: ; --tw-backdrop-grayscale: ; --tw-backdrop-hue-rotate: ; --tw-backdrop-invert: ; --tw-backdrop-opacity: ; --tw-backdrop-saturate: ; --tw-backdrop-sepia: ; margin: 0px; font-size: 14px;&quot;&gt;&lt;b style=&quot;font-size: 14px;&quot;&gt;*界面设计器（暂无）&lt;/b&gt;&lt;/p&gt;&lt;/li&gt;&lt;/ol&gt;" style="shape=ext;double=1;rounded=1;whiteSpace=wrap;html=1;strokeWidth=1;dashed=1;sketch=1;curveFitting=1;jiggle=2;fontSize=14;labelBackgroundColor=none;align=left;spacingBottom=4;spacingTop=4;spacingLeft=4;spacingRight=4;fontFamily=Comic Sans MS;fillColor=#B2C9AB;strokeColor=#788AA3;fontColor=#46495D;" vertex="1" parent="1">
          <mxGeometry x="253" y="90" width="120" height="80" as="geometry" />
        </mxCell>
        <mxCell id="uw5OpCNFV-HiSpu1PvvK-23" style="edgeStyle=orthogonalEdgeStyle;rounded=0;sketch=1;hachureGap=4;jiggle=2;curveFitting=1;orthogonalLoop=1;jettySize=auto;html=1;entryX=0.5;entryY=1;entryDx=0;entryDy=0;fontFamily=Comic Sans MS;fontSize=16;align=left;spacingBottom=4;spacingTop=4;spacingLeft=4;spacingRight=4;labelBackgroundColor=none;strokeColor=#788AA3;fontColor=default;" edge="1" parent="1" source="uw5OpCNFV-HiSpu1PvvK-6" target="uw5OpCNFV-HiSpu1PvvK-22">
          <mxGeometry relative="1" as="geometry" />
        </mxCell>
        <mxCell id="uw5OpCNFV-HiSpu1PvvK-30" style="edgeStyle=orthogonalEdgeStyle;rounded=0;sketch=1;hachureGap=4;jiggle=2;curveFitting=1;orthogonalLoop=1;jettySize=auto;html=1;exitX=1;exitY=0.5;exitDx=0;exitDy=0;entryX=0;entryY=0.5;entryDx=0;entryDy=0;fontFamily=Comic Sans MS;fontSize=16;labelBackgroundColor=none;strokeColor=#788AA3;fontColor=default;" edge="1" parent="1" source="uw5OpCNFV-HiSpu1PvvK-6" target="uw5OpCNFV-HiSpu1PvvK-28">
          <mxGeometry relative="1" as="geometry" />
        </mxCell>
        <mxCell id="uw5OpCNFV-HiSpu1PvvK-31" style="edgeStyle=orthogonalEdgeStyle;rounded=0;sketch=1;hachureGap=4;jiggle=2;curveFitting=1;orthogonalLoop=1;jettySize=auto;html=1;exitX=1;exitY=0.5;exitDx=0;exitDy=0;entryX=0;entryY=0.5;entryDx=0;entryDy=0;fontFamily=Comic Sans MS;fontSize=16;labelBackgroundColor=none;strokeColor=#788AA3;fontColor=default;" edge="1" parent="1" source="uw5OpCNFV-HiSpu1PvvK-6" target="uw5OpCNFV-HiSpu1PvvK-29">
          <mxGeometry relative="1" as="geometry" />
        </mxCell>
        <mxCell id="uw5OpCNFV-HiSpu1PvvK-33" style="edgeStyle=orthogonalEdgeStyle;rounded=0;sketch=1;hachureGap=4;jiggle=2;curveFitting=1;orthogonalLoop=1;jettySize=auto;html=1;exitX=1;exitY=0.5;exitDx=0;exitDy=0;fontFamily=Comic Sans MS;fontSize=16;entryX=0;entryY=0.25;entryDx=0;entryDy=0;labelBackgroundColor=none;strokeColor=#788AA3;fontColor=default;" edge="1" parent="1" source="uw5OpCNFV-HiSpu1PvvK-6" target="uw5OpCNFV-HiSpu1PvvK-26">
          <mxGeometry relative="1" as="geometry">
            <mxPoint x="900" y="50" as="targetPoint" />
          </mxGeometry>
        </mxCell>
        <mxCell id="uw5OpCNFV-HiSpu1PvvK-35" style="edgeStyle=orthogonalEdgeStyle;rounded=0;sketch=1;hachureGap=4;jiggle=2;curveFitting=1;orthogonalLoop=1;jettySize=auto;html=1;exitX=1;exitY=0.5;exitDx=0;exitDy=0;entryX=0;entryY=0.5;entryDx=0;entryDy=0;fontFamily=Comic Sans MS;fontSize=16;labelBackgroundColor=none;strokeColor=#788AA3;fontColor=default;" edge="1" parent="1" source="uw5OpCNFV-HiSpu1PvvK-6" target="uw5OpCNFV-HiSpu1PvvK-34">
          <mxGeometry relative="1" as="geometry" />
        </mxCell>
        <mxCell id="uw5OpCNFV-HiSpu1PvvK-6" value="&lt;font style=&quot;font-size: 14px;&quot;&gt;*数据集成和连接&lt;/font&gt;" style="shape=ext;double=1;rounded=1;whiteSpace=wrap;html=1;fontStyle=1;strokeWidth=1;dashed=1;sketch=1;curveFitting=1;jiggle=2;fontSize=14;labelBackgroundColor=none;align=left;spacingBottom=4;spacingTop=4;spacingLeft=4;spacingRight=4;arcSize=10;fontFamily=Comic Sans MS;fillColor=#B2C9AB;strokeColor=#788AA3;fontColor=#46495D;" vertex="1" parent="1">
          <mxGeometry x="643" y="90" width="127" height="80" as="geometry" />
        </mxCell>
        <mxCell id="uw5OpCNFV-HiSpu1PvvK-8" value="&lt;font style=&quot;font-size: 14px;&quot;&gt;*自动代码生成&lt;span style=&quot;color: rgb(55, 65, 81); font-weight: 400; font-size: 14px;&quot;&gt;：&lt;/span&gt;&lt;/font&gt;&lt;span style=&quot;color: rgb(55, 65, 81); font-size: 14px; font-weight: 400;&quot;&gt;能够根据用户的可视化配置自动生成应用程序的后端和前端代码，包括数据访问、业务逻辑和用户界面。&lt;/span&gt;" style="shape=ext;double=1;rounded=1;whiteSpace=wrap;html=1;fontStyle=1;strokeWidth=1;dashed=1;sketch=1;curveFitting=1;jiggle=2;fontSize=14;labelBackgroundColor=none;align=left;spacingBottom=4;spacingTop=4;spacingLeft=4;spacingRight=4;fontFamily=Comic Sans MS;fillColor=#B2C9AB;strokeColor=#788AA3;fontColor=#46495D;" vertex="1" parent="1">
          <mxGeometry x="90" y="410" width="120" height="160" as="geometry" />
        </mxCell>
        <mxCell id="uw5OpCNFV-HiSpu1PvvK-9" value="工作流和业务规则&lt;span style=&quot;color: rgb(55, 65, 81); font-size: 12px; font-weight: 400;&quot;&gt;：允许用户定义和管理应用程序的业务逻辑、工作流程和规则，以实现自动化和流程控制。&lt;/span&gt;" style="shape=ext;double=1;rounded=1;whiteSpace=wrap;html=1;fontStyle=1;strokeWidth=1;dashed=1;sketch=1;curveFitting=1;jiggle=2;fontSize=12;labelBackgroundColor=none;align=left;spacingBottom=4;spacingTop=4;spacingLeft=4;spacingRight=4;fontFamily=Comic Sans MS;fillColor=#B2C9AB;strokeColor=#788AA3;fontColor=#46495D;" vertex="1" parent="1">
          <mxGeometry x="760" y="600" width="120" height="130" as="geometry" />
        </mxCell>
        <mxCell id="uw5OpCNFV-HiSpu1PvvK-10" value="*权限和安全性管理&lt;span style=&quot;color: rgb(55, 65, 81); font-size: 14px; font-weight: 400;&quot;&gt;：提供对应用程序中的数据和功能进行安全管理和控制的工具，包括用户角色、访问控制和身份验证。&lt;/span&gt;" style="shape=ext;double=1;rounded=1;whiteSpace=wrap;html=1;fontStyle=1;strokeWidth=1;dashed=1;sketch=1;curveFitting=1;jiggle=2;fontSize=14;labelBackgroundColor=none;align=left;spacingBottom=4;spacingTop=4;spacingLeft=4;spacingRight=4;fontFamily=Comic Sans MS;fillColor=#B2C9AB;strokeColor=#788AA3;fontColor=#46495D;" vertex="1" parent="1">
          <mxGeometry x="90" y="730" width="120" height="170" as="geometry" />
        </mxCell>
        <mxCell id="uw5OpCNFV-HiSpu1PvvK-11" value="移动应用支持&lt;span style=&quot;color: rgb(55, 65, 81); font-size: 12px; font-weight: 400;&quot;&gt;：能够生成适用于不同移动平台（iOS、Android）的应用程序，包括移动界面和响应式设计。&lt;/span&gt;" style="shape=ext;double=1;rounded=1;whiteSpace=wrap;html=1;fontStyle=1;strokeWidth=1;dashed=1;sketch=1;curveFitting=1;jiggle=2;fontSize=12;labelBackgroundColor=none;align=left;spacingBottom=4;spacingTop=4;spacingLeft=4;spacingRight=4;fontFamily=Comic Sans MS;fillColor=#B2C9AB;strokeColor=#788AA3;fontColor=#46495D;" vertex="1" parent="1">
          <mxGeometry x="760" y="750" width="120" height="120" as="geometry" />
        </mxCell>
        <mxCell id="uw5OpCNFV-HiSpu1PvvK-12" value="集成开发环境（IDE）&lt;span style=&quot;color: rgb(55, 65, 81); font-size: 12px; font-weight: 400;&quot;&gt;：提供完整的开发工具，包括代码编辑器、调试器和版本控制，以便高级用户进行自定义和扩展。&lt;/span&gt;" style="shape=ext;double=1;rounded=1;whiteSpace=wrap;html=1;fontStyle=1;strokeWidth=1;dashed=1;sketch=1;curveFitting=1;jiggle=2;fontSize=12;labelBackgroundColor=none;align=left;spacingBottom=4;spacingTop=4;spacingLeft=4;spacingRight=4;fontFamily=Comic Sans MS;fillColor=#B2C9AB;strokeColor=#788AA3;fontColor=#46495D;" vertex="1" parent="1">
          <mxGeometry x="760" y="450" width="120" height="130" as="geometry" />
        </mxCell>
        <mxCell id="uw5OpCNFV-HiSpu1PvvK-13" value="&lt;ol style=&quot;border: 0px solid rgb(217, 217, 227); box-sizing: border-box; --tw-border-spacing-x: 0; --tw-border-spacing-y: 0; --tw-translate-x: 0; --tw-translate-y: 0; --tw-rotate: 0; --tw-skew-x: 0; --tw-skew-y: 0; --tw-scale-x: 1; --tw-scale-y: 1; --tw-pan-x: ; --tw-pan-y: ; --tw-pinch-zoom: ; --tw-scroll-snap-strictness: proximity; --tw-gradient-from-position: ; --tw-gradient-via-position: ; --tw-gradient-to-position: ; --tw-ordinal: ; --tw-slashed-zero: ; --tw-numeric-figure: ; --tw-numeric-spacing: ; --tw-numeric-fraction: ; --tw-ring-inset: ; --tw-ring-offset-width: 0px; --tw-ring-offset-color: #fff; --tw-ring-color: rgba(69,89,164,.5); --tw-ring-offset-shadow: 0 0 transparent; --tw-ring-shadow: 0 0 transparent; --tw-shadow: 0 0 transparent; --tw-shadow-colored: 0 0 transparent; --tw-blur: ; --tw-brightness: ; --tw-contrast: ; --tw-grayscale: ; --tw-hue-rotate: ; --tw-invert: ; --tw-saturate: ; --tw-sepia: ; --tw-drop-shadow: ; --tw-backdrop-blur: ; --tw-backdrop-brightness: ; --tw-backdrop-contrast: ; --tw-backdrop-grayscale: ; --tw-backdrop-hue-rotate: ; --tw-backdrop-invert: ; --tw-backdrop-opacity: ; --tw-backdrop-saturate: ; --tw-backdrop-sepia: ; list-style: none; margin: 1.25em 0px; padding: 0px; counter-reset: list-number 0; display: flex; flex-direction: column; color: rgb(55, 65, 81); font-size: 14px;&quot;&gt;&lt;li style=&quot;border: 0px solid rgb(217, 217, 227); box-sizing: border-box; --tw-border-spacing-x: 0; --tw-border-spacing-y: 0; --tw-translate-x: 0; --tw-translate-y: 0; --tw-rotate: 0; --tw-skew-x: 0; --tw-skew-y: 0; --tw-scale-x: 1; --tw-scale-y: 1; --tw-pan-x: ; --tw-pan-y: ; --tw-pinch-zoom: ; --tw-scroll-snap-strictness: proximity; --tw-gradient-from-position: ; --tw-gradient-via-position: ; --tw-gradient-to-position: ; --tw-ordinal: ; --tw-slashed-zero: ; --tw-numeric-figure: ; --tw-numeric-spacing: ; --tw-numeric-fraction: ; --tw-ring-inset: ; --tw-ring-offset-width: 0px; --tw-ring-offset-color: #fff; --tw-ring-color: rgba(69,89,164,.5); --tw-ring-offset-shadow: 0 0 transparent; --tw-ring-shadow: 0 0 transparent; --tw-shadow: 0 0 transparent; --tw-shadow-colored: 0 0 transparent; --tw-blur: ; --tw-brightness: ; --tw-contrast: ; --tw-grayscale: ; --tw-hue-rotate: ; --tw-invert: ; --tw-saturate: ; --tw-sepia: ; --tw-drop-shadow: ; --tw-backdrop-blur: ; --tw-backdrop-brightness: ; --tw-backdrop-contrast: ; --tw-backdrop-grayscale: ; --tw-backdrop-hue-rotate: ; --tw-backdrop-invert: ; --tw-backdrop-opacity: ; --tw-backdrop-saturate: ; --tw-backdrop-sepia: ; margin-bottom: 0px; margin-top: 0px; padding-left: 0.375em; counter-increment: list-number 1; display: block; min-height: 28px; font-size: 14px;&quot;&gt;&lt;p style=&quot;border: 0px solid rgb(217, 217, 227); box-sizing: border-box; --tw-border-spacing-x: 0; --tw-border-spacing-y: 0; --tw-translate-x: 0; --tw-translate-y: 0; --tw-rotate: 0; --tw-skew-x: 0; --tw-skew-y: 0; --tw-scale-x: 1; --tw-scale-y: 1; --tw-pan-x: ; --tw-pan-y: ; --tw-pinch-zoom: ; --tw-scroll-snap-strictness: proximity; --tw-gradient-from-position: ; --tw-gradient-via-position: ; --tw-gradient-to-position: ; --tw-ordinal: ; --tw-slashed-zero: ; --tw-numeric-figure: ; --tw-numeric-spacing: ; --tw-numeric-fraction: ; --tw-ring-inset: ; --tw-ring-offset-width: 0px; --tw-ring-offset-color: #fff; --tw-ring-color: rgba(69,89,164,.5); --tw-ring-offset-shadow: 0 0 transparent; --tw-ring-shadow: 0 0 transparent; --tw-shadow: 0 0 transparent; --tw-shadow-colored: 0 0 transparent; --tw-blur: ; --tw-brightness: ; --tw-contrast: ; --tw-grayscale: ; --tw-hue-rotate: ; --tw-invert: ; --tw-saturate: ; --tw-sepia: ; --tw-drop-shadow: ; --tw-backdrop-blur: ; --tw-backdrop-brightness: ; --tw-backdrop-contrast: ; --tw-backdrop-grayscale: ; --tw-backdrop-hue-rotate: ; --tw-backdrop-invert: ; --tw-backdrop-opacity: ; --tw-backdrop-saturate: ; --tw-backdrop-sepia: ; margin: 0px; font-size: 14px;&quot;&gt;*自定义插件和扩展性：&lt;span style=&quot;font-weight: 400;&quot;&gt;支持用户编写自定义插件或扩展以满足特定需求。&lt;/span&gt;&lt;/p&gt;&lt;/li&gt;&lt;/ol&gt;" style="shape=ext;double=1;rounded=1;whiteSpace=wrap;html=1;fontStyle=1;strokeWidth=1;dashed=1;sketch=1;curveFitting=1;jiggle=2;fontSize=14;labelBackgroundColor=none;align=left;spacingBottom=4;spacingTop=4;spacingLeft=4;spacingRight=4;fontFamily=Comic Sans MS;fillColor=#B2C9AB;strokeColor=#788AA3;fontColor=#46495D;" vertex="1" parent="1">
          <mxGeometry x="90" y="930" width="120" height="130" as="geometry" />
        </mxCell>
        <mxCell id="uw5OpCNFV-HiSpu1PvvK-14" value="*实时协作和团队合作&lt;span style=&quot;color: rgb(55, 65, 81); font-size: 14px; font-weight: 400;&quot;&gt;：允许多个开发者同时在应用程序上协作和编辑。&lt;/span&gt;" style="shape=ext;double=1;rounded=1;whiteSpace=wrap;html=1;fontStyle=1;strokeWidth=1;dashed=1;sketch=1;curveFitting=1;jiggle=2;fontSize=14;labelBackgroundColor=none;align=left;spacingBottom=4;spacingTop=4;spacingLeft=4;spacingRight=4;fontFamily=Comic Sans MS;fillColor=#B2C9AB;strokeColor=#788AA3;fontColor=#46495D;" vertex="1" parent="1">
          <mxGeometry x="90" y="590" width="120" height="120" as="geometry" />
        </mxCell>
        <mxCell id="uw5OpCNFV-HiSpu1PvvK-15" value="*文档和培训资料&lt;span style=&quot;color: rgb(55, 65, 81); font-size: 14px; font-weight: 400;&quot;&gt;：提供详细的文档、培训材料和支持资源，以便用户学习和使用工具。&lt;/span&gt;" style="shape=ext;double=1;rounded=1;whiteSpace=wrap;html=1;fontStyle=1;strokeWidth=1;dashed=1;sketch=1;curveFitting=1;jiggle=2;fontSize=14;labelBackgroundColor=none;align=left;spacingBottom=4;spacingTop=4;spacingLeft=4;spacingRight=4;fontFamily=Comic Sans MS;fillColor=#B2C9AB;strokeColor=#788AA3;fontColor=#46495D;" vertex="1" parent="1">
          <mxGeometry x="90" y="1090" width="120" height="120" as="geometry" />
        </mxCell>
        <UserObject label="阿里巴巴lowcode" link="https://lowcode-engine.cn/demo/demo-custom-initialization/index.html" linkTarget="_blank" id="uw5OpCNFV-HiSpu1PvvK-19">
          <mxCell style="text;html=1;strokeColor=none;fillColor=none;whiteSpace=wrap;align=left;verticalAlign=middle;fontColor=#46495D;fontStyle=4;fontSize=20;fontFamily=Comic Sans MS;spacingBottom=4;spacingTop=4;spacingLeft=4;spacingRight=4;labelBackgroundColor=none;" vertex="1" parent="1">
            <mxGeometry x="493" y="70" width="90" height="40" as="geometry" />
          </mxCell>
        </UserObject>
        <UserObject label="AppSmith" link="https://app.appsmith.com/app/untitled-application-1/page1-65012644f7b4765833d7cbcf/edit/widgets/g01bf4sgsc" linkTarget="_blank" id="uw5OpCNFV-HiSpu1PvvK-22">
          <mxCell style="text;html=1;strokeColor=none;fillColor=none;whiteSpace=wrap;align=left;verticalAlign=middle;fontColor=#46495D;fontStyle=4;fontSize=20;fontFamily=Comic Sans MS;spacingBottom=4;spacingTop=4;spacingLeft=4;spacingRight=4;labelBackgroundColor=none;" vertex="1" parent="1">
            <mxGeometry x="498" y="140" width="90" height="40" as="geometry" />
          </mxCell>
        </UserObject>
        <UserObject label="vform-v3" link="https://www.vform666.com/vform3/" linkTarget="_blank" id="uw5OpCNFV-HiSpu1PvvK-24">
          <mxCell style="text;html=1;strokeColor=none;fillColor=none;whiteSpace=wrap;align=center;verticalAlign=middle;fontColor=#46495D;fontStyle=4;fontSize=20;fontFamily=Comic Sans MS;labelBackgroundColor=none;" vertex="1" parent="1">
            <mxGeometry x="78" y="210" width="130" height="40" as="geometry" />
          </mxCell>
        </UserObject>
        <mxCell id="uw5OpCNFV-HiSpu1PvvK-26" value="*API" style="whiteSpace=wrap;html=1;fontSize=14;align=left;rounded=1;fontStyle=1;strokeWidth=1;dashed=1;sketch=1;curveFitting=1;jiggle=2;labelBackgroundColor=none;spacingBottom=4;spacingTop=4;spacingLeft=4;spacingRight=4;hachureGap=4;fontFamily=Comic Sans MS;fillColor=#B2C9AB;strokeColor=#788AA3;fontColor=#46495D;" vertex="1" parent="1">
          <mxGeometry x="890" y="-25" width="50" height="60" as="geometry" />
        </mxCell>
        <mxCell id="uw5OpCNFV-HiSpu1PvvK-28" value="*数据库" style="whiteSpace=wrap;html=1;fontSize=14;align=left;rounded=1;fontStyle=1;strokeWidth=1;dashed=1;sketch=1;curveFitting=1;jiggle=2;labelBackgroundColor=none;spacingBottom=4;spacingTop=4;spacingLeft=4;spacingRight=4;hachureGap=4;fontFamily=Comic Sans MS;fillColor=#B2C9AB;strokeColor=#788AA3;fontColor=#46495D;" vertex="1" parent="1">
          <mxGeometry x="890" y="55" width="70" height="60" as="geometry" />
        </mxCell>
        <mxCell id="uw5OpCNFV-HiSpu1PvvK-29" value="云服务" style="whiteSpace=wrap;html=1;fontSize=14;align=left;rounded=1;fontStyle=1;strokeWidth=1;dashed=1;sketch=1;curveFitting=1;jiggle=2;labelBackgroundColor=none;spacingBottom=4;spacingTop=4;spacingLeft=4;spacingRight=4;hachureGap=4;fontFamily=Comic Sans MS;fillColor=#B2C9AB;strokeColor=#788AA3;fontColor=#46495D;" vertex="1" parent="1">
          <mxGeometry x="890" y="145" width="70" height="60" as="geometry" />
        </mxCell>
        <mxCell id="uw5OpCNFV-HiSpu1PvvK-34" value="*其他的SaaS集成（文件读取-JSON、CVS）" style="whiteSpace=wrap;html=1;fontSize=14;align=left;rounded=1;fontStyle=1;strokeWidth=1;dashed=1;sketch=1;curveFitting=1;jiggle=2;labelBackgroundColor=none;spacingBottom=4;spacingTop=4;spacingLeft=4;spacingRight=4;hachureGap=4;fontFamily=Comic Sans MS;fillColor=#B2C9AB;strokeColor=#788AA3;fontColor=#46495D;" vertex="1" parent="1">
          <mxGeometry x="890" y="225" width="160" height="60" as="geometry" />
        </mxCell>
        <mxCell id="uw5OpCNFV-HiSpu1PvvK-38" value="" style="edgeStyle=orthogonalEdgeStyle;rounded=0;sketch=1;hachureGap=4;jiggle=2;curveFitting=1;orthogonalLoop=1;jettySize=auto;html=1;fontFamily=Comic Sans MS;fontSize=16;labelBackgroundColor=none;strokeColor=#788AA3;fontColor=default;" edge="1" parent="1" source="uw5OpCNFV-HiSpu1PvvK-36" target="uw5OpCNFV-HiSpu1PvvK-37">
          <mxGeometry relative="1" as="geometry" />
        </mxCell>
        <mxCell id="uw5OpCNFV-HiSpu1PvvK-41" value="" style="edgeStyle=orthogonalEdgeStyle;rounded=0;sketch=1;hachureGap=4;jiggle=2;curveFitting=1;orthogonalLoop=1;jettySize=auto;html=1;fontFamily=Comic Sans MS;fontSize=16;labelBackgroundColor=none;strokeColor=#788AA3;fontColor=default;" edge="1" parent="1" source="uw5OpCNFV-HiSpu1PvvK-36" target="uw5OpCNFV-HiSpu1PvvK-37">
          <mxGeometry relative="1" as="geometry" />
        </mxCell>
        <mxCell id="uw5OpCNFV-HiSpu1PvvK-46" style="edgeStyle=orthogonalEdgeStyle;rounded=0;sketch=1;hachureGap=4;jiggle=2;curveFitting=1;orthogonalLoop=1;jettySize=auto;html=1;exitX=1;exitY=0;exitDx=0;exitDy=0;entryX=0;entryY=0.5;entryDx=0;entryDy=0;fontFamily=Comic Sans MS;fontSize=16;labelBackgroundColor=none;strokeColor=#788AA3;fontColor=default;" edge="1" parent="1" source="uw5OpCNFV-HiSpu1PvvK-36" target="uw5OpCNFV-HiSpu1PvvK-45">
          <mxGeometry relative="1" as="geometry" />
        </mxCell>
        <mxCell id="uw5OpCNFV-HiSpu1PvvK-48" style="edgeStyle=orthogonalEdgeStyle;rounded=0;sketch=1;hachureGap=4;jiggle=2;curveFitting=1;orthogonalLoop=1;jettySize=auto;html=1;exitX=1;exitY=0.75;exitDx=0;exitDy=0;entryX=0;entryY=0.5;entryDx=0;entryDy=0;fontFamily=Comic Sans MS;fontSize=16;labelBackgroundColor=none;strokeColor=#788AA3;fontColor=default;" edge="1" parent="1" source="uw5OpCNFV-HiSpu1PvvK-36" target="uw5OpCNFV-HiSpu1PvvK-47">
          <mxGeometry relative="1" as="geometry" />
        </mxCell>
        <mxCell id="uw5OpCNFV-HiSpu1PvvK-36" value="&lt;font style=&quot;font-size: 14px;&quot;&gt;*工具函数的集成和使用&lt;/font&gt;" style="shape=ext;double=1;rounded=1;whiteSpace=wrap;html=1;fontStyle=1;strokeWidth=1;dashed=1;sketch=1;curveFitting=1;jiggle=2;fontSize=14;labelBackgroundColor=none;align=left;spacingBottom=4;spacingTop=4;spacingLeft=4;spacingRight=4;fontFamily=Comic Sans MS;fillColor=#B2C9AB;strokeColor=#788AA3;fontColor=#46495D;" vertex="1" parent="1">
          <mxGeometry x="270" y="410" width="170" height="70" as="geometry" />
        </mxCell>
        <mxCell id="uw5OpCNFV-HiSpu1PvvK-37" value="lodash" style="shape=ext;double=1;rounded=1;whiteSpace=wrap;html=1;fontStyle=1;strokeWidth=1;dashed=1;sketch=1;curveFitting=1;jiggle=2;fontSize=14;labelBackgroundColor=none;align=left;spacingBottom=4;spacingTop=4;spacingLeft=4;spacingRight=4;fontFamily=Comic Sans MS;hachureGap=4;fillColor=#B2C9AB;strokeColor=#788AA3;fontColor=#46495D;" vertex="1" parent="1">
          <mxGeometry x="509.5" y="380" width="67" height="70" as="geometry" />
        </mxCell>
        <mxCell id="uw5OpCNFV-HiSpu1PvvK-45" value="echart" style="shape=ext;double=1;rounded=1;whiteSpace=wrap;html=1;fontStyle=1;strokeWidth=1;dashed=1;sketch=1;curveFitting=1;jiggle=2;fontSize=14;labelBackgroundColor=none;align=left;spacingBottom=4;spacingTop=4;spacingLeft=4;spacingRight=4;fontFamily=Comic Sans MS;hachureGap=4;fillColor=#B2C9AB;strokeColor=#788AA3;fontColor=#46495D;" vertex="1" parent="1">
          <mxGeometry x="509.5" y="290" width="67" height="70" as="geometry" />
        </mxCell>
        <mxCell id="uw5OpCNFV-HiSpu1PvvK-47" value="moment" style="shape=ext;double=1;rounded=1;whiteSpace=wrap;html=1;fontStyle=1;strokeWidth=1;dashed=1;sketch=1;curveFitting=1;jiggle=2;fontSize=14;labelBackgroundColor=none;align=left;spacingBottom=4;spacingTop=4;spacingLeft=4;spacingRight=4;fontFamily=Comic Sans MS;hachureGap=4;fillColor=#B2C9AB;strokeColor=#788AA3;fontColor=#46495D;" vertex="1" parent="1">
          <mxGeometry x="509.5" y="460" width="67" height="70" as="geometry" />
        </mxCell>
      </root>
    </mxGraphModel>
  </diagram>
</mxfile>
